# 3ds Max Wavefront OBJ Exporter v0.97b - (c)2007 guruware
# File Created: 01.01.2013 18:01:59

mtllib 2PolyPlane.mtl

#
# object Box001
#

v  0.5000 -0.0001 0.0000
v  -0.5000 -0.0001 0.0000
v  -0.5000 -0.0001 1.0000
v  0.5000 -0.0001 1.0000
# 4 vertices

vn 0.0000 1.0000 0.0000
# 1 vertex normals

vt 0.0005 0.0005 1.0000
vt 0.9995 0.0005 0.5000
vt 0.9995 0.9995 0.0000
vt 0.0005 0.9995 0.5000
# 4 texture coords

g Box001
usemtl Material__25
s 32
f 1/1/1 2/2/1 3/3/1 
f 3/3/1 4/4/1 1/1/1 
# 2 faces

